# xmcd
#
# Track frame offsets:
#	150
#	13090
#	25591
#	38014
#	52292
#	68069
#	85478
#	103555
#	117261
#	131639
#	144358
#	158660
#	170946
#	184264
#	195550
#	212820
#	224522
#	238240
#	251168
#	262936
#	277888
#	290127
#
# Disc length: 4063 seconds
#
# Revision: 0
# Processed by: cddbd v1.5.1PL0 Copyright (c) Steve Scherf et al.
# Submitted via: EasyCDDAExtractor 8.0.1.1
#
DISCID=530fdd16
DTITLE=Otis Redding - Otis! The Definitive Otis Redding, Vol. 2
DYEAR=1993
DGENRE=Blues
TTITLE0=You Don't Miss Your Water
TTITLE1=Satisfaction
TTITLE2=I Can't Turn You Loose
TTITLE3=Cupid
TTITLE4=Just One More Day
TTITLE5=Good To Me
TTITLE6=Cigarettes And Coffee
TTITLE7=Chain Gang
TTITLE8=My Lover's Prayer
TTITLE9=It's Growing
TTITLE10=I'm Coming Home
TTITLE11=Fa-Fa-Fa-Fa-Fa (Sad Song)
TTITLE12=I'm Sick Y'All
TTITLE13=Sweet Lorene
TTITLE14=Try A Little Tenderness
TTITLE15=Day Tripper
TTITLE16=Tramp (With Carla)
TTITLE17=Knock On Wood (With Carla)
TTITLE18=Lovey Dovey (With Carla)
TTITLE19=New Year's Resolution (With Carla)
TTITLE20=You Left The Water Running
TTITLE21=Trick Or Treat
EXTD=
EXTT0=
EXTT1=
EXTT2=
EXTT3=
EXTT4=
EXTT5=
EXTT6=
EXTT7=
EXTT8=
EXTT9=
EXTT10=
EXTT11=
EXTT12=
EXTT13=
EXTT14=
EXTT15=
EXTT16=
EXTT17=
EXTT18=
EXTT19=
EXTT20=
EXTT21=
PLAYORDER=
